<mxfile host="Electron" modified="2024-04-26T14:25:27.326Z" agent="Mozilla/5.0 (Windows NT 10.0; Win64; x64) AppleWebKit/537.36 (KHTML, like Gecko) draw.io/23.1.5 Chrome/120.0.6099.109 Electron/28.1.0 Safari/537.36" etag="5qHKzKuWfpykJMYBE4Fh" version="23.1.5" type="device">
  <diagram name="Page-1" id="3BQskDuWwQsD2KUbw-yu">
    <mxGraphModel dx="1034" dy="1611" grid="1" gridSize="10" guides="1" tooltips="1" connect="1" arrows="1" fold="1" page="1" pageScale="1" pageWidth="850" pageHeight="1100" math="0" shadow="0">
      <root>
        <mxCell id="0" />
        <mxCell id="1" parent="0" />
        <mxCell id="dCNc6bfjXbdZUY1DZcNc-55" value="&lt;b&gt;&lt;font style=&quot;font-size: 12px;&quot;&gt;Experiment No. 5 Activity Diagram for Employee Management System&lt;/font&gt;&lt;/b&gt;" style="text;html=1;align=center;verticalAlign=middle;resizable=0;points=[];autosize=1;strokeColor=none;fillColor=none;" parent="1" vertex="1">
          <mxGeometry x="228" y="-490" width="420" height="30" as="geometry" />
        </mxCell>
        <mxCell id="WbveNdoxX_s0FpJu7mWb-8" value="&lt;font style=&quot;font-size: 11px;&quot;&gt;Employee Management System&lt;/font&gt;" style="swimlane;startSize=20;html=1;" parent="1" vertex="1">
          <mxGeometry x="648" y="-1040" width="182" height="520" as="geometry" />
        </mxCell>
        <mxCell id="WbveNdoxX_s0FpJu7mWb-57" style="edgeStyle=orthogonalEdgeStyle;rounded=0;orthogonalLoop=1;jettySize=auto;html=1;entryX=0.5;entryY=0;entryDx=0;entryDy=0;" parent="WbveNdoxX_s0FpJu7mWb-8" source="WbveNdoxX_s0FpJu7mWb-52" target="WbveNdoxX_s0FpJu7mWb-58" edge="1">
          <mxGeometry relative="1" as="geometry">
            <mxPoint x="88" y="450" as="targetPoint" />
          </mxGeometry>
        </mxCell>
        <mxCell id="2cgxCzJ4MsxRYNXKW07e-1" value="No dues" style="edgeLabel;html=1;align=center;verticalAlign=middle;resizable=0;points=[];" parent="WbveNdoxX_s0FpJu7mWb-57" vertex="1" connectable="0">
          <mxGeometry x="-0.2455" y="-3" relative="1" as="geometry">
            <mxPoint x="31" y="3" as="offset" />
          </mxGeometry>
        </mxCell>
        <mxCell id="WbveNdoxX_s0FpJu7mWb-52" value="" style="rhombus;" parent="WbveNdoxX_s0FpJu7mWb-8" vertex="1">
          <mxGeometry x="60" y="364" width="55" height="50" as="geometry" />
        </mxCell>
        <mxCell id="WbveNdoxX_s0FpJu7mWb-59" style="edgeStyle=orthogonalEdgeStyle;rounded=0;orthogonalLoop=1;jettySize=auto;html=1;" parent="WbveNdoxX_s0FpJu7mWb-8" source="WbveNdoxX_s0FpJu7mWb-58" edge="1">
          <mxGeometry relative="1" as="geometry">
            <mxPoint x="-518" y="490" as="targetPoint" />
            <Array as="points">
              <mxPoint x="-68" y="490" />
              <mxPoint x="-68" y="490" />
            </Array>
          </mxGeometry>
        </mxCell>
        <mxCell id="WbveNdoxX_s0FpJu7mWb-58" value="Release Salary" style="html=1;align=center;verticalAlign=top;rounded=1;absoluteArcSize=1;arcSize=10;dashed=0;whiteSpace=wrap;" parent="WbveNdoxX_s0FpJu7mWb-8" vertex="1">
          <mxGeometry x="51" y="470" width="73" height="40" as="geometry" />
        </mxCell>
        <mxCell id="WbveNdoxX_s0FpJu7mWb-9" value="Employee" style="swimlane;startSize=20;html=1;" parent="1" vertex="1">
          <mxGeometry x="39" y="-1040" width="170" height="520" as="geometry" />
        </mxCell>
        <mxCell id="WbveNdoxX_s0FpJu7mWb-13" value="" style="ellipse;fillColor=strokeColor;html=1;movable=0;resizable=0;rotatable=0;deletable=0;editable=0;locked=1;connectable=0;" parent="WbveNdoxX_s0FpJu7mWb-9" vertex="1">
          <mxGeometry x="66" y="30" width="30" height="30" as="geometry" />
        </mxCell>
        <mxCell id="WbveNdoxX_s0FpJu7mWb-18" style="edgeStyle=orthogonalEdgeStyle;rounded=0;orthogonalLoop=1;jettySize=auto;html=1;" parent="WbveNdoxX_s0FpJu7mWb-9" source="WbveNdoxX_s0FpJu7mWb-15" edge="1">
          <mxGeometry relative="1" as="geometry">
            <mxPoint x="81" y="190" as="targetPoint" />
          </mxGeometry>
        </mxCell>
        <mxCell id="WbveNdoxX_s0FpJu7mWb-15" value="Attendance Entry" style="html=1;align=center;verticalAlign=top;rounded=1;absoluteArcSize=1;arcSize=10;dashed=0;whiteSpace=wrap;" parent="WbveNdoxX_s0FpJu7mWb-9" vertex="1">
          <mxGeometry x="11" y="110" width="140" height="40" as="geometry" />
        </mxCell>
        <mxCell id="WbveNdoxX_s0FpJu7mWb-14" style="edgeStyle=orthogonalEdgeStyle;rounded=0;orthogonalLoop=1;jettySize=auto;html=1;" parent="WbveNdoxX_s0FpJu7mWb-9" source="WbveNdoxX_s0FpJu7mWb-13" target="WbveNdoxX_s0FpJu7mWb-15" edge="1">
          <mxGeometry relative="1" as="geometry">
            <mxPoint x="75" y="100" as="targetPoint" />
          </mxGeometry>
        </mxCell>
        <mxCell id="WbveNdoxX_s0FpJu7mWb-19" value="Leave Request" style="html=1;align=center;verticalAlign=top;rounded=1;absoluteArcSize=1;arcSize=10;dashed=0;whiteSpace=wrap;" parent="WbveNdoxX_s0FpJu7mWb-9" vertex="1">
          <mxGeometry x="11" y="190" width="140" height="40" as="geometry" />
        </mxCell>
        <mxCell id="WbveNdoxX_s0FpJu7mWb-44" style="edgeStyle=orthogonalEdgeStyle;rounded=0;orthogonalLoop=1;jettySize=auto;html=1;entryX=0.267;entryY=0.633;entryDx=0;entryDy=0;entryPerimeter=0;" parent="WbveNdoxX_s0FpJu7mWb-9" source="WbveNdoxX_s0FpJu7mWb-41" target="WbveNdoxX_s0FpJu7mWb-43" edge="1">
          <mxGeometry relative="1" as="geometry">
            <mxPoint x="130" y="420" as="targetPoint" />
            <Array as="points">
              <mxPoint x="81" y="411" />
            </Array>
          </mxGeometry>
        </mxCell>
        <mxCell id="WbveNdoxX_s0FpJu7mWb-41" value="Process Salary" style="html=1;align=center;verticalAlign=top;rounded=1;absoluteArcSize=1;arcSize=10;dashed=0;whiteSpace=wrap;" parent="WbveNdoxX_s0FpJu7mWb-9" vertex="1">
          <mxGeometry x="11" y="300" width="140" height="40" as="geometry" />
        </mxCell>
        <mxCell id="WbveNdoxX_s0FpJu7mWb-43" value="" style="html=1;points=[];perimeter=orthogonalPerimeter;fillColor=strokeColor;" parent="WbveNdoxX_s0FpJu7mWb-9" vertex="1">
          <mxGeometry x="146" y="360" width="5" height="80" as="geometry" />
        </mxCell>
        <mxCell id="WbveNdoxX_s0FpJu7mWb-63" value="Start" style="text;html=1;align=center;verticalAlign=middle;resizable=0;points=[];autosize=1;strokeColor=none;fillColor=none;" parent="WbveNdoxX_s0FpJu7mWb-9" vertex="1">
          <mxGeometry x="16" y="30" width="50" height="30" as="geometry" />
        </mxCell>
        <mxCell id="WbveNdoxX_s0FpJu7mWb-10" value="Accountant" style="swimlane;startSize=20;html=1;" parent="1" vertex="1">
          <mxGeometry x="453" y="-1040" width="171" height="520" as="geometry" />
        </mxCell>
        <mxCell id="WbveNdoxX_s0FpJu7mWb-46" value="Add Allowance" style="html=1;align=center;verticalAlign=top;rounded=1;absoluteArcSize=1;arcSize=10;dashed=0;whiteSpace=wrap;" parent="WbveNdoxX_s0FpJu7mWb-10" vertex="1">
          <mxGeometry x="47" y="294" width="73" height="40" as="geometry" />
        </mxCell>
        <mxCell id="WbveNdoxX_s0FpJu7mWb-47" value="Include Pay" style="html=1;align=center;verticalAlign=top;rounded=1;absoluteArcSize=1;arcSize=10;dashed=0;whiteSpace=wrap;" parent="WbveNdoxX_s0FpJu7mWb-10" vertex="1">
          <mxGeometry x="47" y="360" width="73" height="40" as="geometry" />
        </mxCell>
        <mxCell id="WbveNdoxX_s0FpJu7mWb-48" value="Calculate Tax" style="html=1;align=center;verticalAlign=top;rounded=1;absoluteArcSize=1;arcSize=10;dashed=0;whiteSpace=wrap;" parent="WbveNdoxX_s0FpJu7mWb-10" vertex="1">
          <mxGeometry x="47" y="418" width="73" height="40" as="geometry" />
        </mxCell>
        <mxCell id="WbveNdoxX_s0FpJu7mWb-11" value="HRA" style="swimlane;startSize=20;html=1;" parent="1" vertex="1">
          <mxGeometry x="240" y="-1039" width="190" height="520" as="geometry" />
        </mxCell>
        <mxCell id="WbveNdoxX_s0FpJu7mWb-20" style="edgeStyle=orthogonalEdgeStyle;rounded=0;orthogonalLoop=1;jettySize=auto;html=1;exitX=1;exitY=0.5;exitDx=0;exitDy=0;" parent="WbveNdoxX_s0FpJu7mWb-11" source="WbveNdoxX_s0FpJu7mWb-19" edge="1">
          <mxGeometry relative="1" as="geometry">
            <mxPoint x="79" y="150" as="targetPoint" />
            <mxPoint x="-60" y="210" as="sourcePoint" />
            <Array as="points">
              <mxPoint x="-20" y="210" />
              <mxPoint x="-20" y="90" />
              <mxPoint x="79" y="90" />
            </Array>
          </mxGeometry>
        </mxCell>
        <mxCell id="WbveNdoxX_s0FpJu7mWb-24" style="edgeStyle=orthogonalEdgeStyle;rounded=0;orthogonalLoop=1;jettySize=auto;html=1;" parent="WbveNdoxX_s0FpJu7mWb-11" source="WbveNdoxX_s0FpJu7mWb-23" edge="1">
          <mxGeometry relative="1" as="geometry">
            <mxPoint x="30" y="210" as="targetPoint" />
          </mxGeometry>
        </mxCell>
        <mxCell id="WbveNdoxX_s0FpJu7mWb-26" value="Leave Available" style="edgeLabel;html=1;align=center;verticalAlign=middle;resizable=0;points=[];" parent="WbveNdoxX_s0FpJu7mWb-24" vertex="1" connectable="0">
          <mxGeometry x="0.1252" relative="1" as="geometry">
            <mxPoint x="10" y="12" as="offset" />
          </mxGeometry>
        </mxCell>
        <mxCell id="WbveNdoxX_s0FpJu7mWb-25" style="edgeStyle=orthogonalEdgeStyle;rounded=0;orthogonalLoop=1;jettySize=auto;html=1;" parent="WbveNdoxX_s0FpJu7mWb-11" edge="1">
          <mxGeometry relative="1" as="geometry">
            <mxPoint x="130" y="211" as="targetPoint" />
            <mxPoint x="94" y="166" as="sourcePoint" />
          </mxGeometry>
        </mxCell>
        <mxCell id="WbveNdoxX_s0FpJu7mWb-27" value="Leave Balance 0" style="edgeLabel;html=1;align=center;verticalAlign=middle;resizable=0;points=[];" parent="WbveNdoxX_s0FpJu7mWb-25" vertex="1" connectable="0">
          <mxGeometry x="0.0592" relative="1" as="geometry">
            <mxPoint y="12" as="offset" />
          </mxGeometry>
        </mxCell>
        <mxCell id="WbveNdoxX_s0FpJu7mWb-23" value="" style="rhombus;" parent="WbveNdoxX_s0FpJu7mWb-11" vertex="1">
          <mxGeometry x="64" y="150" width="30" height="30" as="geometry" />
        </mxCell>
        <mxCell id="WbveNdoxX_s0FpJu7mWb-39" style="edgeStyle=orthogonalEdgeStyle;rounded=0;orthogonalLoop=1;jettySize=auto;html=1;entryX=0.4;entryY=0.533;entryDx=0;entryDy=0;entryPerimeter=0;exitX=0.5;exitY=1;exitDx=0;exitDy=0;" parent="WbveNdoxX_s0FpJu7mWb-11" edge="1">
          <mxGeometry relative="1" as="geometry">
            <mxPoint x="24" y="312.6400000000001" as="targetPoint" />
            <mxPoint x="47" y="250" as="sourcePoint" />
            <Array as="points">
              <mxPoint x="52" y="250" />
              <mxPoint x="52" y="313" />
            </Array>
          </mxGeometry>
        </mxCell>
        <mxCell id="WbveNdoxX_s0FpJu7mWb-28" value="Accept Leave" style="html=1;align=center;verticalAlign=top;rounded=1;absoluteArcSize=1;arcSize=10;dashed=0;whiteSpace=wrap;" parent="WbveNdoxX_s0FpJu7mWb-11" vertex="1">
          <mxGeometry x="10" y="210" width="70" height="40" as="geometry" />
        </mxCell>
        <mxCell id="WbveNdoxX_s0FpJu7mWb-37" value="Reject Leave" style="html=1;align=center;verticalAlign=top;rounded=1;absoluteArcSize=1;arcSize=10;dashed=0;whiteSpace=wrap;" parent="WbveNdoxX_s0FpJu7mWb-11" vertex="1">
          <mxGeometry x="100" y="210" width="70" height="40" as="geometry" />
        </mxCell>
        <mxCell id="WbveNdoxX_s0FpJu7mWb-38" value="" style="html=1;points=[];perimeter=orthogonalPerimeter;fillColor=strokeColor;" parent="WbveNdoxX_s0FpJu7mWb-11" vertex="1">
          <mxGeometry x="20" y="278" width="5" height="80" as="geometry" />
        </mxCell>
        <mxCell id="WbveNdoxX_s0FpJu7mWb-40" style="edgeStyle=orthogonalEdgeStyle;rounded=0;orthogonalLoop=1;jettySize=auto;html=1;" parent="WbveNdoxX_s0FpJu7mWb-11" edge="1">
          <mxGeometry relative="1" as="geometry">
            <mxPoint x="164" y="250" as="sourcePoint" />
            <mxPoint x="24" y="330" as="targetPoint" />
            <Array as="points">
              <mxPoint x="139" y="250" />
              <mxPoint x="139" y="330" />
            </Array>
          </mxGeometry>
        </mxCell>
        <mxCell id="WbveNdoxX_s0FpJu7mWb-42" style="edgeStyle=orthogonalEdgeStyle;rounded=0;orthogonalLoop=1;jettySize=auto;html=1;entryX=1;entryY=0.5;entryDx=0;entryDy=0;" parent="1" source="WbveNdoxX_s0FpJu7mWb-38" target="WbveNdoxX_s0FpJu7mWb-41" edge="1">
          <mxGeometry relative="1" as="geometry" />
        </mxCell>
        <mxCell id="WbveNdoxX_s0FpJu7mWb-49" value="" style="endArrow=open;startArrow=none;endFill=0;startFill=0;endSize=8;html=1;verticalAlign=bottom;labelBackgroundColor=none;strokeWidth=1;rounded=0;entryX=0;entryY=0.75;entryDx=0;entryDy=0;exitX=0.5;exitY=0.375;exitDx=0;exitDy=0;exitPerimeter=0;" parent="1" source="WbveNdoxX_s0FpJu7mWb-43" target="WbveNdoxX_s0FpJu7mWb-46" edge="1">
          <mxGeometry width="160" relative="1" as="geometry">
            <mxPoint x="200" y="-650" as="sourcePoint" />
            <mxPoint x="360" y="-650" as="targetPoint" />
          </mxGeometry>
        </mxCell>
        <mxCell id="WbveNdoxX_s0FpJu7mWb-50" value="" style="endArrow=open;startArrow=none;endFill=0;startFill=0;endSize=8;html=1;verticalAlign=bottom;labelBackgroundColor=none;strokeWidth=1;rounded=0;entryX=0;entryY=0.5;entryDx=0;entryDy=0;exitX=0.5;exitY=0.508;exitDx=0;exitDy=0;exitPerimeter=0;" parent="1" source="WbveNdoxX_s0FpJu7mWb-43" target="WbveNdoxX_s0FpJu7mWb-47" edge="1">
          <mxGeometry width="160" relative="1" as="geometry">
            <mxPoint x="210" y="-640" as="sourcePoint" />
            <mxPoint x="530" y="-690" as="targetPoint" />
          </mxGeometry>
        </mxCell>
        <mxCell id="WbveNdoxX_s0FpJu7mWb-51" value="" style="endArrow=open;startArrow=none;endFill=0;startFill=0;endSize=8;html=1;verticalAlign=bottom;labelBackgroundColor=none;strokeWidth=1;rounded=0;entryX=0;entryY=0.5;entryDx=0;entryDy=0;exitX=0.933;exitY=0.658;exitDx=0;exitDy=0;exitPerimeter=0;" parent="1" source="WbveNdoxX_s0FpJu7mWb-43" target="WbveNdoxX_s0FpJu7mWb-48" edge="1">
          <mxGeometry width="160" relative="1" as="geometry">
            <mxPoint x="220" y="-630" as="sourcePoint" />
            <mxPoint x="540" y="-680" as="targetPoint" />
          </mxGeometry>
        </mxCell>
        <mxCell id="WbveNdoxX_s0FpJu7mWb-54" style="edgeStyle=orthogonalEdgeStyle;rounded=0;orthogonalLoop=1;jettySize=auto;html=1;entryX=1;entryY=0.5;entryDx=0;entryDy=0;" parent="1" source="WbveNdoxX_s0FpJu7mWb-46" target="WbveNdoxX_s0FpJu7mWb-52" edge="1">
          <mxGeometry relative="1" as="geometry">
            <Array as="points">
              <mxPoint x="793" y="-730" />
              <mxPoint x="793" y="-651" />
            </Array>
          </mxGeometry>
        </mxCell>
        <mxCell id="WbveNdoxX_s0FpJu7mWb-60" value="" style="ellipse;html=1;shape=endState;fillColor=strokeColor;" parent="1" vertex="1">
          <mxGeometry x="99" y="-565" width="30" height="30" as="geometry" />
        </mxCell>
        <mxCell id="WbveNdoxX_s0FpJu7mWb-64" value="End" style="text;html=1;align=center;verticalAlign=middle;resizable=0;points=[];autosize=1;strokeColor=none;fillColor=none;" parent="1" vertex="1">
          <mxGeometry x="56" y="-564" width="40" height="30" as="geometry" />
        </mxCell>
        <mxCell id="WbveNdoxX_s0FpJu7mWb-65" style="edgeStyle=orthogonalEdgeStyle;rounded=0;orthogonalLoop=1;jettySize=auto;html=1;entryX=0;entryY=0.5;entryDx=0;entryDy=0;" parent="1" source="WbveNdoxX_s0FpJu7mWb-48" target="WbveNdoxX_s0FpJu7mWb-52" edge="1">
          <mxGeometry relative="1" as="geometry">
            <Array as="points">
              <mxPoint x="630" y="-602" />
              <mxPoint x="630" y="-651" />
            </Array>
          </mxGeometry>
        </mxCell>
        <mxCell id="gkmgl1j0eVD35i52w6wS-1" style="edgeStyle=orthogonalEdgeStyle;rounded=0;orthogonalLoop=1;jettySize=auto;html=1;entryX=0.5;entryY=0;entryDx=0;entryDy=0;" edge="1" parent="1" source="WbveNdoxX_s0FpJu7mWb-47" target="WbveNdoxX_s0FpJu7mWb-52">
          <mxGeometry relative="1" as="geometry">
            <Array as="points">
              <mxPoint x="640" y="-660" />
              <mxPoint x="640" y="-696" />
              <mxPoint x="736" y="-696" />
            </Array>
          </mxGeometry>
        </mxCell>
      </root>
    </mxGraphModel>
  </diagram>
</mxfile>
